# xmcd
#
# Track frame offsets: 
#        150
#        21674
#        38041
#        56055
#        69659
#        88432
#        104435
#        121775
#        139634
#        158496
#        174798
#        191514
#        206734
#        224493
#        243493
#        259526
#        276216
#        289031
#
# Disc length: 4039 seconds
#
# Revision: 1
# Processed by: cddbd v1.5.2PL0 Copyright (c) Steve Scherf et al.
# Submitted via: ExactAudioCopy v0.95b4
#
DISCID=0e0fc512
DTITLE=Various Artist - The world of Country Hits - CD 2
DYEAR=2004
DGENRE=Country
TTITLE0=Shania Twain - Forever and for always
TTITLE1=Wynonna - What the world needs
TTITLE2=Martina McBride - This one's for the girls
TTITLE3=Dixie Chicks - I can love you better
TTITLE4=Montgomery Gentry - My town
TTITLE5=Rascal Flatts - These days
TTITLE6=Alan Jackson and George Strait - Designated drinker
TTITLE7=Brooks and Dunn - Only in America
TTITLE8=Faith Hill and Tim McGraw - Let's make love
TTITLE9=Diamond Rio - One more day
TTITLE10=Sara Evans - Born to fly
TTITLE11=Toby Keith and Willie Nelson - Beer for my horses
TTITLE12=Kenny Chesney - Big star
TTITLE13=Tim McGraw - She's my kind of rain
TTITLE14=Shania Twain - You're still the one
TTITLE15=Faron Young - You were always on my mind
TTITLE16=Skeeter Davis - Love me tender
TTITLE17=Lynn Anderson - Rose Garden
EXTD=
EXTT0=
EXTT1=
EXTT2=
EXTT3=
EXTT4=
EXTT5=
EXTT6=
EXTT7=
EXTT8=
EXTT9=
EXTT10=
EXTT11=
EXTT12=
EXTT13=
EXTT14=
EXTT15=
EXTT16=
EXTT17=
PLAYORDER=
